<svg width="16" height="18" fill="none" xmlns="http://www.w3.org/2000/svg"><g clip-path="url(#clip0_212_1159)"><path fill-rule="evenodd" clip-rule="evenodd" d="M10.647 1.822V.925a.89.89 0 01.882-.897.89.89 0 01.883.897v.897c1.949 0 3.53 1.607 3.53 3.59v8.971c0 1.982-1.581 3.589-3.53 3.589H3.588c-1.949 0-3.53-1.607-3.53-3.589V5.411c0-1.982 1.581-3.589 3.53-3.589V.925a.89.89 0 01.883-.897.89.89 0 01.882.897v.897h5.294zM14.177 9H1.824v5.383c0 .99.79 1.795 1.764 1.795h8.824c.974 0 1.764-.804 1.764-1.795V9zm-1.765-5.383v.897a.89.89 0 01-.883.897.89.89 0 01-.882-.897v-.897H5.353v.897a.89.89 0 01-.882.897.89.89 0 01-.883-.897v-.897c-.975 0-1.764.803-1.764 1.794v1.795h12.353V5.41c0-.991-.791-1.794-1.765-1.794z" fill="#4C6F84"/></g><defs><clipPath id="clip0_212_1159"><path fill="#fff" transform="translate(.059)" d="M0 0h15.882v18H0z"/></clipPath></defs></svg>