<svg width="60" height="60" fill="none" xmlns="http://www.w3.org/2000/svg"><g clip-path="url(#clip0_212_1123)" fill="#A7B6BF"><path d="M30.615 9.464H55.78a1.172 1.172 0 000-2.344H30.614a1.172 1.172 0 000 2.344z"/><path d="M4.559 9.464h25.165a1.172 1.172 0 100-2.344H4.559a1.172 1.172 0 000 2.344z"/><path d="M1.172 2.344h1.715v13.023c0 .648.524 1.172 1.172 1.172H55.94c.647 0 1.172-.524 1.172-1.172V2.344h1.715a1.172 1.172 0 000-2.344H1.172a1.172 1.172 0 100 2.344zm53.597 11.851H31.172V2.344H54.77v11.851zM28.83 2.344v11.851H5.23V2.344h23.597zm29.998 24.513H31.172v-3.723a1.07 1.07 0 012.137 0v.213a1.172 1.172 0 002.343 0v-.213a3.416 3.416 0 00-3.412-3.412 3.416 3.416 0 00-3.412 3.412v3.723H1.172c-.647 0-1.172.525-1.172 1.172v4.747c0 .648.525 1.172 1.172 1.172h1.715v24.943c0 .648.524 1.172 1.172 1.172H55.94c.647 0 1.172-.524 1.172-1.172V33.948h1.715c.647 0 1.172-.524 1.172-1.172V28.03c0-.647-.525-1.172-1.172-1.172zM5.231 33.948h9.368V57.72H5.23V33.95zm11.711 0h11.886V57.72H16.942V33.95zm14.23 23.771V33.95h11.885v23.77H31.172zm23.598 0H45.4V33.95h9.368v23.77zm2.886-26.114H2.344V29.2h55.312v2.404z"/><path d="M16.71 42.654h12.734a1.172 1.172 0 000-2.344H16.71a1.172 1.172 0 000 2.344z"/><path d="M31.291 42.654h12.735a1.172 1.172 0 000-2.344H31.29a1.172 1.172 0 000 2.344zm13.696 4.35H55.89c.554 0 1.003-.535 1.003-1.195s-.449-1.196-1.003-1.196H44.987c-.554 0-1.003.535-1.003 1.196 0 .66.45 1.195 1.003 1.195zm-40.637 0h10.902c.554 0 1.003-.535 1.003-1.195s-.45-1.196-1.003-1.196H4.35c-.554 0-1.003.535-1.003 1.196 0 .66.449 1.195 1.003 1.195zm12.36 4.495h12.734a1.172 1.172 0 000-2.344H16.71a1.172 1.172 0 000 2.344z"/><path d="M31.291 51.499h12.735a1.172 1.172 0 100-2.344H31.29a1.172 1.172 0 000 2.344z"/></g><defs><clipPath id="clip0_212_1123"><path fill="#fff" d="M0 0h60v60H0z"/></clipPath></defs></svg>