<svg width="34" height="34" fill="none" xmlns="http://www.w3.org/2000/svg"><path d="M20.652 18.262v-3.699l3.17-5.07a.997.997 0 00.15-.528V5.876a4.995 4.995 0 003.885-3.884h5.147a.996.996 0 000-1.992H.996a.996.996 0 000 1.992h5.147a4.995 4.995 0 003.884 3.884v3.089c0 .187.053.37.152.528l3.169 5.07v3.699c0 .55.446.996.996.996h1.66v13.746a.996.996 0 001.992 0V19.258h1.66c.55 0 .996-.446.996-.996zM8.206 1.992h17.588a2.993 2.993 0 01-2.817 1.992H11.023a2.993 2.993 0 01-2.817-1.992zm3.814 3.985h9.96v1.992h-9.96V5.977zm6.64 11.289h-3.32v-1.993h3.32v1.993zm.444-3.985h-4.208l-2.075-3.32h8.358l-2.075 3.32z" fill="#A7B6BF"/><path d="M33.004 28.023h-12.02a.996.996 0 00-.996.997v3.984c0 .55.446.996.996.996h12.02c.55 0 .996-.446.996-.996V29.02a.996.996 0 00-.996-.997zm-.996 3.985H21.98v-1.992h10.028v1.992zm-18.992-3.985H.996A.996.996 0 000 29.02v3.984c0 .55.446.996.996.996h12.02c.55 0 .996-.446.996-.996V29.02a.996.996 0 00-.996-.997zm-.996 3.985H1.992v-1.992H12.02v1.992zm12.633-11.434a.996.996 0 10-1.408-1.408l-1.879 1.878a.996.996 0 001.41 1.409l1.877-1.879zm-1.013 5.457h2.657a.996.996 0 100-1.992H23.64a.996.996 0 100 1.992zm-11.007-3.578a.996.996 0 000-1.41l-1.878-1.877a.996.996 0 10-1.408 1.408l1.878 1.879a.996.996 0 001.409 0zm-5.926 2.582c0 .55.446.996.996.996h2.656a.996.996 0 100-1.992H7.703a.996.996 0 00-.996.996z" fill="#A7B6BF"/></svg>