<svg width="23" height="23" fill="none" xmlns="http://www.w3.org/2000/svg"><path d="M16.855 15.043a2.157 2.157 0 00-3.055 0l-1.042 1.043a19.133 19.133 0 01-5.843-5.843L7.956 9.2a2.156 2.156 0 000-3.055L5.923 4.118a2.106 2.106 0 00-1.517-.632 2.156 2.156 0 00-1.531.632l-.977.97a4.578 4.578 0 00-1.18 3.774c.23 2.695 1.999 5.937 4.723 8.668 2.724 2.732 6.002 4.492 8.697 4.751.2.01.402.01.604 0a4.364 4.364 0 003.17-1.179l.97-.977a2.154 2.154 0 00.632-1.531 2.105 2.105 0 00-.632-1.517l-2.027-2.034zm1.013 4.069l-.977.97a3.284 3.284 0 01-2.631.719c-2.336-.202-5.312-1.855-7.77-4.313-2.458-2.458-4.11-5.412-4.334-7.748a3.256 3.256 0 01.719-2.63l1.013-.978a.719.719 0 01.51-.209.719.719 0 01.511.209l2.034 2.055a.719.719 0 010 1.014L5.506 9.638a.719.719 0 00-.115.87 19.76 19.76 0 003.112 4.01 19.757 19.757 0 004.01 3.113.718.718 0 00.87-.115l1.438-1.438a.719.719 0 011.013 0l2.034 2.034a.717.717 0 01.209.51.719.719 0 01-.209.49zm1.251-15.238A10.724 10.724 0 0011.5.72a.719.719 0 000 1.437 9.344 9.344 0 019.344 9.423.719.719 0 101.437 0 10.715 10.715 0 00-3.162-7.705z" fill="#FFBD12"/><path d="M15.03 7.985a4.311 4.311 0 011.271 3.098.719.719 0 101.438 0 5.75 5.75 0 00-5.75-5.822.719.719 0 100 1.438 4.313 4.313 0 013.04 1.286z" fill="#FFBD12"/></svg>