<svg width="23" height="23" fill="none" xmlns="http://www.w3.org/2000/svg"><path d="M19.35 5.287A8.266 8.266 0 0012.81.802a9.393 9.393 0 00-1.876 0 8.268 8.268 0 00-6.54 4.485 8.932 8.932 0 001.224 9.83l5.615 6.827a.826.826 0 001.277 0l5.615-6.827a8.931 8.931 0 001.224-9.83zm-2.502 8.78l-4.976 6.05-4.976-6.05a7.38 7.38 0 01-1.04-8.01 6.64 6.64 0 015.246-3.611 7.574 7.574 0 011.54.001 6.639 6.639 0 015.245 3.611 7.38 7.38 0 01-1.039 8.01z" fill="#FFBD12"/><path d="M11.872 4.887a4.133 4.133 0 100 8.266 4.133 4.133 0 000-8.266zm0 6.613a2.48 2.48 0 110-4.959 2.48 2.48 0 010 4.959z" fill="#FFBD12"/></svg>