<svg width="34" height="34" fill="none" xmlns="http://www.w3.org/2000/svg"><path d="M29.152 23.375v-12.75a.996.996 0 00-.502-.865L17.494 3.385a.996.996 0 00-.988 0L5.35 9.76a.996.996 0 00-.502.865v12.75c0 .358.191.688.502.865l11.156 6.375a.996.996 0 00.988 0L28.65 24.24a.996.996 0 00.502-.865zM6.84 12.341L14.992 17 6.84 21.659V12.34zm9.169 6.373l.026 9.337-8.184-4.676 8.158-4.661zm1.992.005l8.148 4.656-8.122 4.64-.026-9.296zM19.008 17l8.152-4.659v9.318L19.008 17zM17 5.397l9.149 5.228L17 15.853l-9.149-5.228L17 5.397zM28.688 0H26.03a.996.996 0 000 1.992h.318l-1.553 1.554a.996.996 0 001.408 1.408l1.487-1.487v.252a.996.996 0 001.993 0V.996A.996.996 0 0028.687 0zM5.313 4.715c.55 0 .996-.446.996-.996v-.252l1.487 1.487a.996.996 0 101.408-1.408L7.651 1.992h.318a.996.996 0 000-1.992H5.312a.996.996 0 00-.996.996V3.72c0 .55.446.996.997.996zm23.375 24.57a.996.996 0 00-.997.996v.252l-1.487-1.487a.996.996 0 10-1.408 1.408l1.553 1.554h-.318a.996.996 0 000 1.992h2.657c.55 0 .996-.446.996-.996V30.28a.996.996 0 00-.997-.996zm-20.892-.239l-1.487 1.487v-.252a.996.996 0 00-1.993 0v2.723c0 .55.446.996.997.996h2.656a.996.996 0 000-1.992H7.65l1.553-1.554a.996.996 0 10-1.408-1.408z" fill="#A7B6BF"/></svg>