<svg width="20" height="20" fill="none" xmlns="http://www.w3.org/2000/svg"><path fill-rule="evenodd" clip-rule="evenodd" d="M14.582 11.985c-.249-.124-1.472-.723-1.7-.805-.228-.083-.394-.124-.56.123-.166.248-.643.806-.788.971-.145.166-.29.186-.54.062-.248-.124-1.05-.385-2-1.229-.74-.656-1.24-1.467-1.384-1.715-.145-.248-.016-.382.109-.506.112-.11.249-.289.373-.433.124-.145.166-.248.249-.414.083-.165.041-.31-.02-.433-.063-.124-.56-1.343-.768-1.84-.202-.482-.407-.416-.56-.424a10.035 10.035 0 00-.477-.009.916.916 0 00-.663.31c-.228.248-.871.847-.871 2.066 0 1.219.891 2.396 1.016 2.562.124.165 1.754 2.666 4.25 3.739a14.32 14.32 0 001.419.521c.596.189 1.138.162 1.567.098.478-.07 1.472-.599 1.68-1.177.207-.579.207-1.074.145-1.178-.063-.103-.228-.165-.477-.289zm-4.54 6.17h-.003a8.295 8.295 0 01-4.213-1.149l-.302-.178-3.133.817.836-3.04-.197-.31A8.188 8.188 0 011.765 9.91c.002-4.541 3.715-8.236 8.28-8.236a8.24 8.24 0 015.852 2.416 8.167 8.167 0 012.422 5.827c-.002 4.542-3.715 8.237-8.277 8.237zm7.044-15.249A9.918 9.918 0 0010.042 0C4.552 0 .086 4.446.083 9.91c0 1.747.458 3.451 1.33 4.954L0 20l5.279-1.378a9.987 9.987 0 004.759 1.206h.004c5.488 0 9.956-4.446 9.958-9.91a9.827 9.827 0 00-2.914-7.012z" fill="#fff"/></svg>